<svg width="14" height="14" viewBox="0 0 14 14" fill="none" xmlns="http://www.w3.org/2000/svg">
<path d="M10 12.25V13.3438C10 13.7062 9.66422 14 9.25 14H0.75C0.335781 14 0 13.7062 0 13.3438V3.28125C0 2.91881 0.335781 2.625 0.75 2.625H3V10.7188C3 11.5631 3.78503 12.25 4.75 12.25H10ZM10 2.84375V0H4.75C4.33578 0 4 0.293809 4 0.65625V10.7188C4 11.0812 4.33578 11.375 4.75 11.375H13.25C13.6642 11.375 14 11.0812 14 10.7188V3.5H10.75C10.3375 3.5 10 3.20469 10 2.84375ZM13.7803 1.9953L11.7197 0.192199C11.579 0.0691366 11.3882 9.09989e-07 11.1893 0L11 0V2.625H14V2.45932C14 2.28528 13.921 2.11837 13.7803 1.9953Z" fill="black" fill-opacity="0.37"/>
</svg>
